{"title":"Gallowwalkers.2012.480p.BRRip.x264-Fastbet99","uid":8747222,"size":839352954,"categoryP":"video","categoryS":"movies","magnet":"?xt=urn:btih:484623cd351f2b8c4871fa0dc8be6f5426883178&amp;dn=Gallowwalkers.2012.480p.BRRip.x264-Fastbet99&amp;tr=udp%3A%2F%2Ftracker.openbittorrent.com%3A80&amp;tr=udp%3A%2F%2Fopen.demonii.com%3A1337&amp;tr=udp%3A%2F%2Ftracker.coppersurfer.tk%3A6969&amp;tr=udp%3A%2F%2Fexodus.desync.com%3A6969","seeders":1,"leechers":0,"uploader":"Fastbet99","files":-1,"time":1374951355,"description":"Gallowwalkers (2012)\n\n\nIMDB Info\t\t\t\t : http://www.imdb.com/title/tt0829176/\n\nSource\t\t\t\t\t : 720p-ETM (Thanks)\nComplete name                            : Gallowwalkers.2012.480p.BRRip.x264-Fastbet99.mp4\nFormat                                   : MPEG-4\nFormat profile                           : Base Media\nCodec ID                                 : isom\nFile size                                : 800 MiB\nDuration                                 : 1h 32mn\nOverall bit rate mode                    : Variable\nOverall bit rate                         : 1 212 Kbps\n\nVideo\nID                                       : 1\nFormat                                   : AVC\nFormat/Info                              : Advanced Video Codec\nFormat profile                           : &lt;a class=&quot;__cf_email__&quot; href=&quot;/cdn-cgi/l/email-protection&quot; data-cfemail=&quot;0840616f6048443c2639&quot;&gt;[email&amp;#160;protected]&lt;/a&gt;&lt;script cf-hash='f9e31' type=&quot;text/javascript&quot;&gt;\n/* &lt;![CDATA[ */!function(){try{var t=&quot;currentScript&quot;in document?document.currentScript:function(){for(var t=document.getElementsByTagName(&quot;script&quot;),e=t.length;e--;)if(t[e].getAttribute(&quot;cf-hash&quot;))return t[e]}();if(t&amp;&amp;t.previousSibling){var e,r,n,i,c=t.previousSibling,a=c.getAttribute(&quot;data-cfemail&quot;);if(a){for(e=&quot;&quot;,r=parseInt(a.substr(0,2),16),n=2;a.length-n;n+=2)i=parseInt(a.substr(n,2),16)^r,e+=String.fromCharCode(i);e=document.createTextNode(e),c.parentNode.replaceChild(e,c)}}}catch(u){}}();/* ]]&gt; */&lt;/script&gt;\nFormat settings, CABAC                   : Yes\nFormat settings, ReFrames                : 4 frames\nCodec ID                                 : avc1\nCodec ID/Info                            : Advanced Video Coding\nDuration                                 : 1h 32mn\nBit rate                                 : 1 113 Kbps\nMaximum bit rate                         : 4 381 Kbps\nWidth                                    : 854 pixels\nHeight                                   : 368 pixels\nDisplay aspect ratio                     : 2.35:1\nFrame rate mode                          : Constant\nFrame rate                               : 23.976 fps\nColor space                              : YUV\nChroma subsampling                       : 4:2:0\nBit depth                                : 8 bits\nScan type                                : Progressive\nBits/(Pixel*Frame)                       : 0.148\nStream size                              : 734 MiB (92%)\nWriting library                          : x264 core 133 r2334 a3ac64b\n\nAudio\nID                                       : 2\nFormat                                   : AAC\nFormat/Info                              : Advanced Audio Codec\nFormat profile                           : LC\nCodec ID                                 : 40\nDuration                                 : 1h 32mn\nBit rate mode                            : Variable\nBit rate                                 : 96.0 Kbps\nMaximum bit rate                         : 136 Kbps\nChannel(s)                               : 2 channels\nChannel positions                        : Front: L R\nSampling rate                            : 48.0 KHz\nCompression mode                         : Lossy\nStream size                              : 63.3 MiB (8%)\nLanguage                                 : English\nEncoder\t\t\t\t\t : Fastbet99\n\n\nScreenshots &lt;a href=&quot;\nhttp://lookpic.com/O/i2/1206/bSfhIkKY.jpeg&quot; rel=&quot;nofollow&quot; target=&quot;_NEW&quot;&gt;\nhttp://lookpic.com/O/i2/1206/bSfhIkKY.jpeg&lt;/a&gt;\n\nStairway To heaven - Help People With Keep Seed As Long You Can\n","torrent":{"xt":"urn:btih:484623cd351f2b8c4871fa0dc8be6f5426883178","amp;dn":"Gallowwalkers.2012.480p.BRRip.x264-Fastbet99","amp;tr":["udp%3A%2F%2Ftracker.openbittorrent.com%3A80","udp%3A%2F%2Fopen.demonii.com%3A1337","udp%3A%2F%2Ftracker.coppersurfer.tk%3A6969","udp%3A%2F%2Fexodus.desync.com%3A6969"],"infoHash":"484623cd351f2b8c4871fa0dc8be6f5426883178","infoHashBuffer":{"type":"Buffer","data":[72,70,35,205,53,31,43,140,72,113,250,13,200,190,111,84,38,136,49,120]},"announce":[],"urlList":[]}}